<?xml version="1.0" encoding="utf-8"?>
<!-- Generator: Adobe Illustrator 15.0.0, SVG Export Plug-In . SVG Version: 6.00 Build 0)  -->
<!DOCTYPE svg PUBLIC "-//W3C//DTD SVG 1.1//EN" "http://www.w3.org/Graphics/SVG/1.1/DTD/svg11.dtd">
<svg version="1.1" id="Layer_1" xmlns="http://www.w3.org/2000/svg" xmlns:xlink="http://www.w3.org/1999/xlink" x="0px" y="0px"
	 width="151px" height="42px" viewBox="0 0 151 42" enable-background="new 0 0 151 42" xml:space="preserve">
<path fill="#231F20" d="M128.666,13.928c-3.731-1.45-7.792-0.724-11.632-1.534c-1.483,0.283-1.852-1.148-2.44-2.141
	c0.275-0.065,0.856-0.201,1.131-0.266c0.564,0.61,1.096,1.229,1.69,1.832c-0.04-0.443-0.07-0.854-0.109-1.298
	c1.014,0.473,2.006,0.982,3.044,1.417c-0.706-0.802-1.434-1.568-2.139-2.371c1.276-0.203,2.584-0.414,3.853-0.646
	c-1.43-0.182-2.841-0.271-4.249-0.488c1.462-0.925,2.957-1.858,4.397-2.874c-1.872,0.698-3.676,1.541-5.516,2.231
	c0.28-1.002,0.63-1.99,0.943-2.999c-0.845,0.94-1.546,1.944-2.277,2.956c-1.143-0.055-2.324-0.133-3.467-0.187
	c0.236,1.56,0.496,3.082,0.732,4.64c-5.338,0.509-10.261,3.344-15.687,3.066c-2.295-0.009-4.638,0.058-6.941,0.015
	c1.403-1.459,2.97-2.762,3.858-4.619c1.069-0.122,2.116-0.206,3.2-0.267c-0.407-0.357-0.783-0.721-1.166-1.114
	c0.976-0.1,1.924-0.193,2.901-0.295c-0.972-0.288-1.959-0.508-2.909-0.835c1.648-0.547,3.265-1.089,4.913-1.637
	c-1.787,0.225-3.545,0.444-5.34,0.64c-0.81-2.07,0.798-3.186,0.798-3.186s-2.325,0.668-2.018,2.536
	c-0.692,0.484-0.124,0.096-0.847,0.588c-1.338-0.881-1.283-2.842-1.283-2.842s-0.75,2.575,0.404,3.5
	c-0.538,1.291-2.03,3.803-3.368,4.569c-2.03,1.122-3.661,3.119-6.046,3.551c-1.856,0.127-2.152-0.053-3.173,0.031
	c-4.071-0.407-8.046,0.565-11.996,1.157c-3.189,0.512-6.281,1.305-9.325,2.301c-5.498,1.681-10.613,4.485-16.261,5.841
	C37.675,26.366,32.69,27.101,28,25.613c-3.608-1.138-7.235-2.894-9.588-5.932c-1.871-2.216-2.048-5.454-1.017-8.056
	c0.902-2.468,1.893-5.175,0.947-7.754c0.135,1.905,0.202,3.954-0.902,5.634c-1.451,2.468-2.361,5.518-1.61,8.375
	c1.151,3.629,4.053,6.41,7.246,8.353c4.966,3.2,11.107,3.866,16.846,3.082c6.132-0.531,11.934-2.819,17.789-4.643
	c4.627-1.143,9.258-2.155,13.956-2.764c3.652-0.495,8.903-1.394,12.824,1.43c0.468,0.424,0.928,0.854,1.399,1.275
	c-0.716,1.072-1.426,2.175-1.993,3.341c0.613,1.79,1.233,3.677,1.831,5.274c0.117-1.861-0.423-2.965-0.423-2.965l1.091,0.076
	l2.386,4.229c0,0-0.757-2.271-1.119-3.783c1.834,0.248,3.409,1.461,5.252,1.739c-1.384-0.805-2.87-1.491-4.096-2.591
	c1.121-0.038,2.219-0.038,3.341-0.073c-1.014-0.473-2.069-0.838-3.124-1.206c0.431-0.359,0.864-0.719,1.296-1.079
	c0.266-0.935,0.727-4.58,2.293-4.237c5.77-1.837,11.491,0.485,17.402-0.611c0.579,1.641,1.425,3.187,2.574,4.5
	c1.046,1.014,0.839,2.613,1.117,3.937c0.171-0.784,0.313-1.56,0.447-2.366c0.183-0.043,0.513-0.153,0.697-0.196
	c1.463,1.142,2.963,2.309,4.457,3.444c-1.192-1.369-2.439-2.69-3.608-4.096c1.813,0.156,3.6,0.479,5.4,0.444
	c-1.579-0.534-3.221-0.923-4.752-1.533c1.15-0.463,2.309-0.896,3.415-1.416c-1.207,0.092-2.375,0.204-3.589,0.263
	c0.283-0.584,0.604-1.143,0.857-1.72c-0.769,0.44-1.531,0.909-2.286,1.409c-0.439-0.768-0.885-1.568-1.293-2.345
	c1.326-0.958,2.592-2.029,4.067-2.762c1.894-0.605,3.72,0.71,5.578,0.918c3.428,0.843,6.973,0.399,10.438,0.167
	c1.214-0.059,2.482-0.965,2.454-2.024C135.919,16.31,131.955,14.868,128.666,13.928z"/>
</svg>
